<mxfile host="app.diagrams.net" agent="Mozilla/5.0 (X11; Linux x86_64; rv:135.0) Gecko/20100101 Firefox/135.0" version="26.0.16">
  <diagram name="第 1 页" id="qcZfTBJT3RQ6fI5V6ZEV">
    <mxGraphModel dx="2241" dy="735" grid="1" gridSize="10" guides="1" tooltips="1" connect="1" arrows="1" fold="1" page="1" pageScale="1" pageWidth="827" pageHeight="1169" math="0" shadow="0">
      <root>
        <mxCell id="0" />
        <mxCell id="1" parent="0" />
        <mxCell id="Ne6aaJUnb0zTtXHMR8---17" value="" style="rounded=0;whiteSpace=wrap;html=1;fillColor=#f5f5f5;strokeColor=#666666;fontColor=#333333;fontStyle=0;shadow=1;" parent="1" vertex="1">
          <mxGeometry x="120.63" y="1307.5" width="471.25" height="140" as="geometry" />
        </mxCell>
        <mxCell id="Ne6aaJUnb0zTtXHMR8---4" value="" style="rounded=0;whiteSpace=wrap;html=1;fillColor=#f5f5f5;strokeColor=#666666;fontColor=#333333;fontStyle=0;shadow=1;" parent="1" vertex="1">
          <mxGeometry x="120.63" y="1115" width="471.25" height="140" as="geometry" />
        </mxCell>
        <mxCell id="XzjEIZI_EAOU5d1nywT3-20" value="" style="rounded=0;whiteSpace=wrap;html=1;fillColor=#fff2cc;strokeColor=#d6b656;fontStyle=0;shadow=1;" parent="1" vertex="1">
          <mxGeometry x="152.88" y="1130" width="60" height="100" as="geometry" />
        </mxCell>
        <mxCell id="Ne6aaJUnb0zTtXHMR8---5" style="edgeStyle=orthogonalEdgeStyle;rounded=0;orthogonalLoop=1;jettySize=auto;html=1;exitX=1;exitY=0.5;exitDx=0;exitDy=0;entryX=0;entryY=0.5;entryDx=0;entryDy=0;fontStyle=0;shadow=1;" parent="1" source="XzjEIZI_EAOU5d1nywT3-21" target="XzjEIZI_EAOU5d1nywT3-42" edge="1">
          <mxGeometry relative="1" as="geometry" />
        </mxCell>
        <mxCell id="XzjEIZI_EAOU5d1nywT3-21" value="&lt;b&gt;&lt;span&gt;数据分片1&lt;/span&gt;&lt;/b&gt;" style="rounded=0;whiteSpace=wrap;html=1;fillColor=#fff2cc;strokeColor=#d6b656;fontStyle=0;shadow=1;" parent="1" vertex="1">
          <mxGeometry x="162.88" y="1140" width="60" height="100" as="geometry" />
        </mxCell>
        <mxCell id="XzjEIZI_EAOU5d1nywT3-34" value="" style="rounded=0;whiteSpace=wrap;html=1;shadow=1;" parent="1" vertex="1">
          <mxGeometry x="-60" y="1205" width="60" height="97.5" as="geometry" />
        </mxCell>
        <mxCell id="XzjEIZI_EAOU5d1nywT3-38" value="&lt;b&gt;&lt;font style=&quot;font-size: 16px;&quot;&gt;&lt;i&gt;Input&lt;/i&gt;&lt;/font&gt;&lt;/b&gt;" style="rounded=0;whiteSpace=wrap;html=1;shadow=1;" parent="1" vertex="1">
          <mxGeometry x="-50" y="1212.5" width="60" height="100" as="geometry" />
        </mxCell>
        <mxCell id="XzjEIZI_EAOU5d1nywT3-39" value="&lt;b&gt;&lt;font style=&quot;font-size: 16px;&quot;&gt;&lt;i&gt;Input&lt;/i&gt;&lt;/font&gt;&lt;/b&gt;" style="rounded=0;whiteSpace=wrap;html=1;shadow=1;" parent="1" vertex="1">
          <mxGeometry x="-40" y="1222.5" width="60" height="100" as="geometry" />
        </mxCell>
        <mxCell id="Ne6aaJUnb0zTtXHMR8---32" style="edgeStyle=orthogonalEdgeStyle;rounded=0;orthogonalLoop=1;jettySize=auto;html=1;exitX=1;exitY=0.5;exitDx=0;exitDy=0;entryX=0;entryY=0.5;entryDx=0;entryDy=0;shadow=1;" parent="1" source="XzjEIZI_EAOU5d1nywT3-41" target="XzjEIZI_EAOU5d1nywT3-20" edge="1">
          <mxGeometry relative="1" as="geometry" />
        </mxCell>
        <mxCell id="Ne6aaJUnb0zTtXHMR8---33" style="edgeStyle=orthogonalEdgeStyle;rounded=0;orthogonalLoop=1;jettySize=auto;html=1;exitX=1;exitY=0.5;exitDx=0;exitDy=0;entryX=0;entryY=0.5;entryDx=0;entryDy=0;shadow=1;" parent="1" source="XzjEIZI_EAOU5d1nywT3-41" target="Ne6aaJUnb0zTtXHMR8---18" edge="1">
          <mxGeometry relative="1" as="geometry" />
        </mxCell>
        <mxCell id="XzjEIZI_EAOU5d1nywT3-41" value="&lt;font style=&quot;font-size: 16px;&quot;&gt;&lt;b&gt;数据&lt;/b&gt;&lt;/font&gt;" style="rounded=0;whiteSpace=wrap;html=1;shadow=1;" parent="1" vertex="1">
          <mxGeometry x="-30" y="1232.5" width="60" height="100" as="geometry" />
        </mxCell>
        <mxCell id="Ne6aaJUnb0zTtXHMR8---6" style="edgeStyle=orthogonalEdgeStyle;rounded=0;orthogonalLoop=1;jettySize=auto;html=1;exitX=1;exitY=0.5;exitDx=0;exitDy=0;fontStyle=0;shadow=1;" parent="1" source="XzjEIZI_EAOU5d1nywT3-42" edge="1">
          <mxGeometry relative="1" as="geometry">
            <mxPoint x="460" y="1190" as="targetPoint" />
          </mxGeometry>
        </mxCell>
        <mxCell id="XzjEIZI_EAOU5d1nywT3-42" value="&lt;font style=&quot;font-size: 16px;&quot;&gt;&lt;b&gt;模型参数&lt;/b&gt;&lt;/font&gt;" style="rounded=0;whiteSpace=wrap;html=1;fillColor=#d5e8d4;strokeColor=#82b366;fontStyle=0;shadow=1;" parent="1" vertex="1">
          <mxGeometry x="310" y="1155" width="92.5" height="70" as="geometry" />
        </mxCell>
        <mxCell id="XzjEIZI_EAOU5d1nywT3-44" value="&lt;b&gt;&lt;span&gt;输出结果1&lt;/span&gt;&lt;/b&gt;" style="rounded=0;whiteSpace=wrap;html=1;fillColor=#fff2cc;strokeColor=#d6b656;fontStyle=0;shadow=1;" parent="1" vertex="1">
          <mxGeometry x="460" y="1162.5" width="90" height="45" as="geometry" />
        </mxCell>
        <mxCell id="Ne6aaJUnb0zTtXHMR8---34" style="edgeStyle=orthogonalEdgeStyle;rounded=0;orthogonalLoop=1;jettySize=auto;html=1;exitX=1;exitY=0.5;exitDx=0;exitDy=0;entryX=0;entryY=0.5;entryDx=0;entryDy=0;shadow=1;" parent="1" source="Ne6aaJUnb0zTtXHMR8---1" target="Ne6aaJUnb0zTtXHMR8---27" edge="1">
          <mxGeometry relative="1" as="geometry" />
        </mxCell>
        <mxCell id="Ne6aaJUnb0zTtXHMR8---1" value="&lt;b&gt;输出结果1&lt;/b&gt;" style="rounded=0;whiteSpace=wrap;html=1;fillColor=#fff2cc;strokeColor=#d6b656;fontStyle=0;shadow=1;" parent="1" vertex="1">
          <mxGeometry x="470" y="1172.5" width="90" height="45" as="geometry" />
        </mxCell>
        <mxCell id="Ne6aaJUnb0zTtXHMR8---16" value="&lt;font style=&quot;font-size: 21px;&quot;&gt;&lt;b&gt;&lt;font&gt;GPU 1&lt;/font&gt;&lt;/b&gt;&lt;/font&gt;" style="text;html=1;align=center;verticalAlign=middle;whiteSpace=wrap;rounded=0;fontStyle=0;shadow=1;" parent="1" vertex="1">
          <mxGeometry x="470" y="1125" width="110" height="30" as="geometry" />
        </mxCell>
        <mxCell id="Ne6aaJUnb0zTtXHMR8---18" value="" style="rounded=0;whiteSpace=wrap;html=1;fillColor=#dae8fc;strokeColor=#6c8ebf;fontStyle=0;shadow=1;" parent="1" vertex="1">
          <mxGeometry x="152.88" y="1322.5" width="60" height="100" as="geometry" />
        </mxCell>
        <mxCell id="Ne6aaJUnb0zTtXHMR8---19" style="edgeStyle=orthogonalEdgeStyle;rounded=0;orthogonalLoop=1;jettySize=auto;html=1;exitX=1;exitY=0.5;exitDx=0;exitDy=0;entryX=0;entryY=0.5;entryDx=0;entryDy=0;fontStyle=0;shadow=1;" parent="1" source="Ne6aaJUnb0zTtXHMR8---20" target="Ne6aaJUnb0zTtXHMR8---22" edge="1">
          <mxGeometry relative="1" as="geometry" />
        </mxCell>
        <mxCell id="Ne6aaJUnb0zTtXHMR8---20" value="&lt;b&gt;&lt;span&gt;数据分片2&lt;/span&gt;&lt;/b&gt;" style="rounded=0;whiteSpace=wrap;html=1;fillColor=#dae8fc;strokeColor=#6c8ebf;fontStyle=0;shadow=1;" parent="1" vertex="1">
          <mxGeometry x="162.88" y="1332.5" width="60" height="100" as="geometry" />
        </mxCell>
        <mxCell id="Ne6aaJUnb0zTtXHMR8---21" style="edgeStyle=orthogonalEdgeStyle;rounded=0;orthogonalLoop=1;jettySize=auto;html=1;exitX=1;exitY=0.5;exitDx=0;exitDy=0;fontStyle=0;shadow=1;" parent="1" source="Ne6aaJUnb0zTtXHMR8---22" edge="1">
          <mxGeometry relative="1" as="geometry">
            <mxPoint x="460" y="1382.5" as="targetPoint" />
          </mxGeometry>
        </mxCell>
        <mxCell id="Ne6aaJUnb0zTtXHMR8---22" value="&lt;font style=&quot;font-size: 16px;&quot;&gt;&lt;b&gt;模型参数&lt;/b&gt;&lt;/font&gt;" style="rounded=0;whiteSpace=wrap;html=1;fillColor=#d5e8d4;strokeColor=#82b366;fontStyle=0;shadow=1;" parent="1" vertex="1">
          <mxGeometry x="310" y="1347.5" width="92.5" height="70" as="geometry" />
        </mxCell>
        <mxCell id="Ne6aaJUnb0zTtXHMR8---23" value="&lt;b&gt;&lt;span&gt;输出结果1&lt;/span&gt;&lt;/b&gt;" style="rounded=0;whiteSpace=wrap;html=1;fillColor=#dae8fc;strokeColor=#6c8ebf;fontStyle=0;shadow=1;" parent="1" vertex="1">
          <mxGeometry x="460" y="1355" width="90" height="45" as="geometry" />
        </mxCell>
        <mxCell id="Ne6aaJUnb0zTtXHMR8---35" style="edgeStyle=orthogonalEdgeStyle;rounded=0;orthogonalLoop=1;jettySize=auto;html=1;exitX=1;exitY=0.5;exitDx=0;exitDy=0;entryX=0;entryY=0.5;entryDx=0;entryDy=0;shadow=1;" parent="1" source="Ne6aaJUnb0zTtXHMR8---24" target="Ne6aaJUnb0zTtXHMR8---27" edge="1">
          <mxGeometry relative="1" as="geometry" />
        </mxCell>
        <mxCell id="Ne6aaJUnb0zTtXHMR8---24" value="&lt;b&gt;输出结果2&lt;/b&gt;" style="rounded=0;whiteSpace=wrap;html=1;fillColor=#dae8fc;strokeColor=#6c8ebf;fontStyle=0;shadow=1;" parent="1" vertex="1">
          <mxGeometry x="470" y="1365" width="90" height="45" as="geometry" />
        </mxCell>
        <mxCell id="Ne6aaJUnb0zTtXHMR8---25" value="&lt;font style=&quot;font-size: 21px;&quot;&gt;&lt;b&gt;&lt;font&gt;GPU 2&lt;/font&gt;&lt;/b&gt;&lt;/font&gt;" style="text;html=1;align=center;verticalAlign=middle;whiteSpace=wrap;rounded=0;fontStyle=0;shadow=1;" parent="1" vertex="1">
          <mxGeometry x="475" y="1312.5" width="100" height="30" as="geometry" />
        </mxCell>
        <mxCell id="Ne6aaJUnb0zTtXHMR8---27" value="&lt;b&gt;&lt;span&gt;输出结果1&lt;/span&gt;&lt;/b&gt;" style="rounded=0;whiteSpace=wrap;html=1;fillColor=#fff2cc;strokeColor=#d6b656;fontStyle=0;shadow=1;" parent="1" vertex="1">
          <mxGeometry x="690" y="1255" width="90" height="45" as="geometry" />
        </mxCell>
        <mxCell id="Ne6aaJUnb0zTtXHMR8---29" value="&lt;b&gt;&lt;span&gt;输出结果1&lt;/span&gt;&lt;/b&gt;" style="rounded=0;whiteSpace=wrap;html=1;fillColor=#fff2cc;strokeColor=#d6b656;fontStyle=0;shadow=1;" parent="1" vertex="1">
          <mxGeometry x="700" y="1265" width="90" height="45" as="geometry" />
        </mxCell>
        <mxCell id="Ne6aaJUnb0zTtXHMR8---30" value="&lt;b&gt;&lt;span&gt;输出结果1&lt;/span&gt;&lt;/b&gt;" style="rounded=0;whiteSpace=wrap;html=1;fillColor=#dae8fc;strokeColor=#6c8ebf;fontStyle=0;shadow=1;" parent="1" vertex="1">
          <mxGeometry x="710" y="1275" width="90" height="45" as="geometry" />
        </mxCell>
        <mxCell id="Ne6aaJUnb0zTtXHMR8---31" value="&lt;b&gt;输出结果&lt;/b&gt;" style="rounded=0;whiteSpace=wrap;html=1;fillColor=#dae8fc;strokeColor=#6c8ebf;fontStyle=0;shadow=1;" parent="1" vertex="1">
          <mxGeometry x="720" y="1285" width="90" height="45" as="geometry" />
        </mxCell>
        <mxCell id="Ne6aaJUnb0zTtXHMR8---37" value="&lt;b&gt;&lt;font style=&quot;font-size: 20px;&quot;&gt;数据并行&lt;/font&gt;&lt;/b&gt;" style="text;html=1;align=center;verticalAlign=middle;whiteSpace=wrap;rounded=0;shadow=1;" parent="1" vertex="1">
          <mxGeometry x="250" y="1470" width="200" height="30" as="geometry" />
        </mxCell>
        <mxCell id="_r7eG_rxtBQOmm-_Ckm6-1" value="&lt;font style=&quot;font-size: 14px;&quot;&gt;&lt;b&gt;&lt;font&gt;Reduce技术&lt;/font&gt;&lt;/b&gt;&lt;/font&gt;" style="text;html=1;align=center;verticalAlign=middle;whiteSpace=wrap;rounded=0;" vertex="1" parent="1">
          <mxGeometry x="630" y="1235" width="60" height="30" as="geometry" />
        </mxCell>
      </root>
    </mxGraphModel>
  </diagram>
</mxfile>
